<svg width="40" height="40" viewBox="0 0 40 40" fill="none" xmlns="http://www.w3.org/2000/svg">
<rect x="0.5" y="0.5" width="39" height="39" rx="19.5" stroke="white"/>
<path d="M11.6666 11.6666H13.1166C14.0166 11.6666 14.725 12.4416 14.65 13.3333L13.9583 21.6333C13.8416 22.9916 14.9166 24.1583 16.2833 24.1583H25.1583C26.3583 24.1583 27.4083 23.175 27.5 21.9833L27.95 15.7333C28.05 14.35 27 13.225 25.6083 13.225H14.85" stroke="white" stroke-width="1.5" stroke-miterlimit="10" stroke-linecap="round" stroke-linejoin="round"/>
<path d="M23.5417 28.3333C24.117 28.3333 24.5833 27.867 24.5833 27.2917C24.5833 26.7164 24.117 26.25 23.5417 26.25C22.9664 26.25 22.5 26.7164 22.5 27.2917C22.5 27.867 22.9664 28.3333 23.5417 28.3333Z" stroke="white" stroke-width="1.5" stroke-miterlimit="10" stroke-linecap="round" stroke-linejoin="round"/>
<path d="M16.875 28.3333C17.4503 28.3333 17.9167 27.867 17.9167 27.2917C17.9167 26.7164 17.4503 26.25 16.875 26.25C16.2997 26.25 15.8334 26.7164 15.8334 27.2917C15.8334 27.867 16.2997 28.3333 16.875 28.3333Z" stroke="white" stroke-width="1.5" stroke-miterlimit="10" stroke-linecap="round" stroke-linejoin="round"/>
<path d="M17.5 16.6666H27.5" stroke="white" stroke-width="1.5" stroke-miterlimit="10" stroke-linecap="round" stroke-linejoin="round"/>
</svg>
