<svg width="100" height="94" viewBox="0 0 100 94" fill="none" xmlns="http://www.w3.org/2000/svg">
<path d="M40.087 44.4907L30.8785 53.7381C30.186 54.4317 30.186 55.5362 30.8785 56.2298C31.212 56.5637 31.6737 56.7436 32.1098 56.7436C32.5715 56.7436 33.0075 56.5637 33.3666 56.2298L42.5751 46.9823C43.2676 46.2888 43.2676 45.1842 42.5751 44.4907C41.8825 43.8228 40.7796 43.8228 40.087 44.4907Z" fill="white"/>
<path d="M74.2486 54.4322L54.8057 34.807L57.5759 32.0071C60.064 33.497 63.2446 33.7025 64.7324 33.7025C65.0915 33.7025 65.3479 33.6768 65.4762 33.6768C65.9636 33.6511 66.4253 33.3942 66.7587 33.0089L74.3512 23.2991C74.9668 22.5284 74.8129 21.4239 74.0691 20.8331C73.2995 20.2166 72.1966 20.3707 71.6066 21.1156L64.5015 30.1833C63.3729 30.1576 61.6287 29.9778 60.1922 29.387L70.2728 19.3175C70.9397 18.6239 70.9397 17.5194 70.2728 16.8258C69.5803 16.158 68.4773 16.158 67.7847 16.8258L57.7042 26.921C57.1399 25.5082 56.9603 23.7614 56.9347 22.6055L66.1431 15.5158C66.9126 14.925 67.0665 13.8204 66.4766 13.0498C65.861 12.2792 64.758 12.125 63.9885 12.7158L54.1131 20.345C53.7284 20.6533 53.4719 21.1156 53.4462 21.6294C53.4206 22.1688 53.241 26.4329 55.1135 29.5411L52.3176 32.3153L33.0799 12.8957C32.7721 12.5617 32.3104 12.3562 31.8487 12.3562C31.387 12.3562 30.9253 12.5617 30.5918 12.87L30.3353 13.1525C30.0532 13.4351 29.8736 13.8204 29.8223 14.2314C29.7881 14.7623 29.771 15.3017 29.771 15.8497C29.7966 21.7064 32.6951 28.5393 38.3895 36.1941C42.5192 41.794 46.6232 45.6985 46.7771 45.8783C47.1619 46.2122 47.6749 46.3921 48.1879 46.3407L51.6507 45.9554C52.6254 45.8269 53.318 44.9792 53.2154 44.0031C53.0871 43.027 52.215 42.3334 51.2659 42.4619L48.624 42.7444C45.982 40.0986 35.1319 28.6164 33.4903 18.29L71.7605 56.9239C72.094 57.2578 72.5557 57.4376 73.0174 57.4376C73.4534 57.4376 73.8895 57.2578 74.2486 56.9239C74.9412 56.2303 74.9412 55.1258 74.2486 54.4322Z" fill="white"/>
<path d="M28.3646 59.6205C27.9798 59.6205 27.6207 59.4664 27.3129 59.2095C20.2078 52.762 16.1294 43.5659 16.1294 33.9845C16.1294 15.2326 31.34 0 50.0647 0C68.7895 0 84.0001 15.2326 84.0001 33.9845C84.0001 42.076 80.5629 50.2703 74.3043 57.0261C73.7143 57.6682 72.7139 57.6939 72.0727 57.1031C71.4571 56.5123 71.4058 55.5105 71.9957 54.8683C77.7158 48.7033 80.8707 41.2797 80.8707 33.9845C80.8707 16.9794 67.0452 3.13386 50.0647 3.13386C33.0842 3.13386 19.2587 16.9794 19.2587 33.9845C19.2587 42.6925 22.978 51.0409 29.4162 56.8719C30.0575 57.4628 30.1088 58.4389 29.5188 59.0811C29.211 59.4407 28.8006 59.6205 28.3646 59.6205Z" fill="white"/>
<path d="M15.6786 74.2976H11.073C11.0403 73.9179 10.9532 73.5734 10.8117 73.2642C10.6756 72.955 10.4851 72.6892 10.2401 72.4668C10.0005 72.239 9.70929 72.0654 9.36632 71.9461C9.02335 71.8213 8.63411 71.759 8.1986 71.759C7.43644 71.759 6.79133 71.9434 6.26327 72.3122C5.74065 72.6811 5.34324 73.21 5.07104 73.8989C4.80429 74.5878 4.67091 75.415 4.67091 76.3805C4.67091 77.4003 4.80701 78.2546 5.07921 78.9435C5.35685 79.627 5.75698 80.1423 6.2796 80.4895C6.80222 80.8312 7.431 81.0021 8.16593 81.0021C8.58512 81.0021 8.96075 80.9506 9.29283 80.8475C9.62491 80.739 9.91344 80.5844 10.1584 80.3837C10.4034 80.183 10.6021 79.9416 10.7545 79.6596C10.9124 79.3721 11.0186 79.0493 11.073 78.6913L15.6786 78.7239C15.6242 79.429 15.4254 80.1477 15.0825 80.88C14.7395 81.6069 14.2523 82.2795 13.6208 82.8979C12.9947 83.5109 12.219 84.0045 11.2935 84.3788C10.368 84.753 9.29283 84.9402 8.06794 84.9402C6.53275 84.9402 5.15543 84.612 3.93598 83.9557C2.72198 83.2993 1.76112 82.3338 1.05341 81.059C0.351135 79.7843 0 78.2248 0 76.3805C0 74.5254 0.359301 72.9632 1.0779 71.6939C1.7965 70.4191 2.76553 69.4563 3.98497 68.8054C5.20442 68.149 6.56541 67.8209 8.06794 67.8209C9.12407 67.8209 10.0958 67.9646 10.9832 68.2521C11.8705 68.5396 12.649 68.96 13.3186 69.5133C13.9882 70.0611 14.5272 70.7365 14.9355 71.5393C15.3438 72.3421 15.5915 73.2615 15.6786 74.2976Z" fill="white"/>
<path d="M22.3114 77.6824V84.7124H17.8038V68.0487H22.1481V74.5905H22.2787C22.5618 73.7931 23.0327 73.172 23.6914 72.7272C24.3501 72.277 25.1422 72.0519 26.0677 72.0519C26.9551 72.0519 27.7254 72.2526 28.3787 72.654C29.0374 73.0554 29.5464 73.6087 29.9057 74.3138C30.2704 75.019 30.4501 75.8272 30.4446 76.7385V84.7124H25.937V77.6824C25.9425 77.064 25.7873 76.5785 25.4716 76.2259C25.1613 75.8733 24.7176 75.6971 24.1405 75.6971C23.7758 75.6971 23.4546 75.7784 23.177 75.9411C22.9048 76.0985 22.6924 76.3263 22.54 76.6246C22.393 76.9175 22.3168 77.2701 22.3114 77.6824Z" fill="white"/>
<path d="M38.68 84.9402C37.3408 84.9402 36.1866 84.6852 35.2176 84.1753C34.254 83.66 33.5109 82.9223 32.9883 81.9622C32.4711 80.9967 32.2126 79.8413 32.2126 78.496C32.2126 77.205 32.4739 76.0768 32.9965 75.1112C33.5191 74.1457 34.2568 73.3944 35.2095 72.8574C36.1621 72.3204 37.2863 72.0519 38.582 72.0519C39.5292 72.0519 40.3867 72.1983 41.1543 72.4912C41.9219 72.7842 42.5778 73.21 43.1222 73.7687C43.6666 74.322 44.0858 74.9946 44.3798 75.7866C44.6738 76.5785 44.8208 77.4708 44.8208 78.4635V79.505H33.6171V77.0314H40.6725C40.667 76.6734 40.5745 76.3588 40.3948 76.0876C40.2206 75.811 39.9838 75.5967 39.6844 75.4448C39.3904 75.2875 39.0556 75.2089 38.68 75.2089C38.3152 75.2089 37.9804 75.2875 37.6756 75.4448C37.3707 75.5967 37.1257 75.8083 36.9406 76.0795C36.761 76.3507 36.6657 76.668 36.6548 77.0314V79.7002C36.6548 80.1016 36.7392 80.4596 36.908 80.7743C37.0767 81.0889 37.319 81.3357 37.6347 81.5147C37.9505 81.6937 38.3316 81.7832 38.778 81.7832C39.0883 81.7832 39.3714 81.7398 39.6272 81.653C39.8885 81.5662 40.1117 81.4415 40.2968 81.2787C40.4819 81.1106 40.618 80.9099 40.7051 80.6766H44.8208C44.6792 81.5445 44.3444 82.2985 43.8163 82.9386C43.2883 83.5732 42.5887 84.0669 41.7177 84.4194C40.8521 84.7666 39.8395 84.9402 38.68 84.9402Z" fill="white"/>
<path d="M54.1728 72.2146V75.4692H45.7782V72.2146H54.1728ZM47.3787 84.7124V71.8566C47.3787 70.826 47.5638 69.9716 47.934 69.2936C48.3042 68.6155 48.8268 68.1084 49.5019 67.772C50.1769 67.4357 50.9717 67.2676 51.8863 67.2676C52.4579 67.2676 53.0132 67.311 53.5522 67.3978C54.0966 67.4846 54.4994 67.5605 54.7607 67.6256L54.1075 70.8477C53.9441 70.7988 53.7536 70.7609 53.5359 70.7338C53.3181 70.7012 53.1276 70.6849 52.9642 70.6849C52.5396 70.6849 52.2538 70.7744 52.1068 70.9534C51.9598 71.1324 51.8863 71.3684 51.8863 71.6613V84.7124H47.3787Z" fill="white"/>
<path d="M63.4248 72.2146V75.4692H55.0302V72.2146H63.4248ZM56.6307 84.7124V71.8566C56.6307 70.826 56.8158 69.9716 57.186 69.2936C57.5562 68.6155 58.0788 68.1084 58.7539 67.772C59.4289 67.4357 60.2237 67.2676 61.1383 67.2676C61.7099 67.2676 62.2652 67.311 62.8042 67.3978C63.3486 67.4846 63.7514 67.5605 64.0127 67.6256L63.3595 70.8477C63.1961 70.7988 63.0056 70.7609 62.7878 70.7338C62.5701 70.7012 62.3796 70.6849 62.2162 70.6849C61.7916 70.6849 61.5058 70.7744 61.3588 70.9534C61.2118 71.1324 61.1383 71.3684 61.1383 71.6613V84.7124H56.6307Z" fill="white"/>
<path d="M70.7925 84.9402C69.4533 84.9402 68.2992 84.6852 67.3301 84.1753C66.3666 83.66 65.6235 82.9223 65.1009 81.9622C64.5837 80.9967 64.3251 79.8413 64.3251 78.496C64.3251 77.205 64.5864 76.0768 65.109 75.1112C65.6316 74.1457 66.3693 73.3944 67.322 72.8574C68.2747 72.3204 69.3988 72.0519 70.6945 72.0519C71.6418 72.0519 72.4992 72.1983 73.2668 72.4912C74.0344 72.7842 74.6904 73.21 75.2348 73.7687C75.7792 74.322 76.1984 74.9946 76.4923 75.7866C76.7863 76.5785 76.9333 77.4708 76.9333 78.4635V79.505H65.7296V77.0314H72.785C72.7795 76.6734 72.687 76.3588 72.5073 76.0876C72.3331 75.811 72.0963 75.5967 71.7969 75.4448C71.5029 75.2875 71.1681 75.2089 70.7925 75.2089C70.4278 75.2089 70.093 75.2875 69.7881 75.4448C69.4832 75.5967 69.2383 75.8083 69.0532 76.0795C68.8735 76.3507 68.7782 76.668 68.7673 77.0314V79.7002C68.7673 80.1016 68.8517 80.4596 69.0205 80.7743C69.1893 81.0889 69.4315 81.3357 69.7473 81.5147C70.063 81.6937 70.4441 81.7832 70.8905 81.7832C71.2008 81.7832 71.4839 81.7398 71.7398 81.653C72.0011 81.5662 72.2243 81.4415 72.4094 81.2787C72.5945 81.1106 72.7306 80.9099 72.8177 80.6766H76.9333C76.7917 81.5445 76.4569 82.2985 75.9289 82.9386C75.4008 83.5732 74.7013 84.0669 73.8302 84.4194C72.9646 84.7666 71.9521 84.9402 70.7925 84.9402Z" fill="white"/>
<path d="M90.2376 76.2829H86.0893C86.0676 76.0279 85.9777 75.8083 85.8199 75.6238C85.662 75.4394 85.4578 75.2984 85.2074 75.2007C84.9624 75.0977 84.6902 75.0461 84.3908 75.0461C84.0043 75.0461 83.6722 75.1166 83.3946 75.2577C83.1169 75.3987 82.9808 75.5994 82.9863 75.8598C82.9808 76.0442 83.0598 76.2151 83.2231 76.3724C83.3919 76.5297 83.7158 76.6517 84.1948 76.7385L86.7426 77.1942C88.0274 77.4274 88.9828 77.8207 89.6088 78.374C90.2403 78.9218 90.5588 79.6568 90.5643 80.579C90.5588 81.4686 90.2921 82.2416 89.764 82.8979C89.2414 83.5488 88.5255 84.0533 87.6164 84.4113C86.7127 84.7639 85.681 84.9402 84.5215 84.9402C82.6052 84.9402 81.1054 84.5496 80.022 83.7685C78.9441 82.9874 78.3426 81.9568 78.2174 80.6766H82.6923C82.7522 81.0726 82.9482 81.3791 83.2803 81.5961C83.6178 81.8076 84.0424 81.9134 84.5541 81.9134C84.9679 81.9134 85.3081 81.8429 85.5749 81.7018C85.8471 81.5608 85.9859 81.3601 85.9913 81.0997C85.9859 80.8611 85.8661 80.6712 85.632 80.5302C85.4034 80.3891 85.0441 80.2752 84.5541 80.1884L82.333 79.7979C81.0537 79.5755 80.0955 79.1524 79.4586 78.5286C78.8217 77.9048 78.5059 77.102 78.5114 76.1202C78.5059 75.2523 78.7346 74.5173 79.1973 73.9151C79.6655 73.3076 80.3324 72.8465 81.1979 72.5319C82.069 72.2119 83.1006 72.0519 84.2928 72.0519C86.1057 72.0519 87.5347 72.4262 88.5799 73.1747C89.6306 73.9233 90.1832 74.9593 90.2376 76.2829Z" fill="white"/>
<path d="M99.7714 72.2146V75.4692H91.5074V72.2146H99.7714ZM93.108 69.2204H97.6155V80.6929C97.6155 80.8665 97.6455 81.0129 97.7054 81.1323C97.7653 81.2462 97.8578 81.333 97.983 81.3926C98.1082 81.4469 98.2688 81.474 98.4648 81.474C98.6009 81.474 98.7588 81.4577 98.9384 81.4252C99.1235 81.3926 99.2596 81.3655 99.3467 81.3438L100 84.5008C99.7986 84.5605 99.51 84.6337 99.1344 84.7205C98.7642 84.8073 98.3233 84.8642 97.8115 84.8914C96.7772 84.9456 95.9089 84.8398 95.2066 84.574C94.5043 84.3028 93.9763 83.877 93.6224 83.2966C93.2686 82.7162 93.0971 81.9893 93.108 81.116V69.2204Z" fill="white"/>
<path d="M50.4203 90.5505H2.80002C2.42219 90.5505 2.10034 90.2343 2.10034 89.8492C2.10034 89.4642 2.42219 89.1479 2.80002 89.1479H50.4203C50.8121 89.1479 51.1199 89.4642 51.1199 89.8492C51.1199 90.2343 50.8121 90.5505 50.4203 90.5505Z" fill="white"/>
<path d="M50.4211 93.9167H40.057C39.6788 93.9167 39.3567 93.6035 39.3567 93.2086C39.3567 92.8274 39.6788 92.5142 40.057 92.5142H50.4211C50.8133 92.5142 51.1214 92.8274 51.1214 93.2086C51.1214 93.6035 50.8133 93.9167 50.4211 93.9167Z" fill="white"/>
<path d="M53.0823 93.8516V89.4021H56.0586V90.1777H54.0327V91.238H55.861V92.0136H54.0327V93.8516H53.0823Z" fill="white"/>
<path d="M57.5994 93.9146C57.3843 93.9146 57.1926 93.8776 57.0243 93.8038C56.856 93.7285 56.7229 93.6177 56.6248 93.4714C56.5283 93.3236 56.48 93.1397 56.48 92.9195C56.48 92.7341 56.5144 92.5784 56.5831 92.4524C56.6519 92.3264 56.7456 92.225 56.8641 92.1483C56.9826 92.0715 57.1172 92.0136 57.2679 91.9745C57.4201 91.9354 57.5796 91.9078 57.7464 91.8919C57.9425 91.8716 58.1005 91.8528 58.2205 91.8354C58.3405 91.8166 58.4276 91.7891 58.4817 91.7529C58.5359 91.7167 58.5629 91.6631 58.5629 91.5921V91.5791C58.5629 91.4415 58.519 91.335 58.4312 91.2597C58.3449 91.1844 58.222 91.1467 58.0625 91.1467C57.8942 91.1467 57.7603 91.1836 57.6608 91.2575C57.5613 91.3299 57.4955 91.4212 57.4633 91.5313L56.5985 91.4617C56.6424 91.259 56.7287 91.0837 56.8575 90.936C56.9863 90.7868 57.1523 90.6724 57.3557 90.5927C57.5606 90.5116 57.7976 90.471 58.0669 90.471C58.2542 90.471 58.4334 90.4928 58.6046 90.5362C58.7773 90.5797 58.9302 90.647 59.0634 90.7383C59.198 90.8295 59.3041 90.9468 59.3816 91.0902C59.4592 91.2322 59.498 91.4024 59.498 91.6008V93.8516H58.6112V93.3888H58.5849C58.5307 93.4931 58.4583 93.5851 58.3676 93.6647C58.2769 93.7429 58.1678 93.8045 58.0405 93.8494C57.9132 93.8928 57.7662 93.9146 57.5994 93.9146ZM57.8671 93.2758C58.0047 93.2758 58.1261 93.249 58.2315 93.1955C58.3369 93.1404 58.4195 93.0665 58.4795 92.9738C58.5395 92.8812 58.5695 92.7761 58.5695 92.6588V92.3047C58.5402 92.3235 58.5 92.3409 58.4488 92.3568C58.399 92.3713 58.3427 92.3851 58.2798 92.3981C58.2169 92.4097 58.1539 92.4206 58.091 92.4307C58.0281 92.4394 57.971 92.4474 57.9198 92.4546C57.8101 92.4705 57.7142 92.4959 57.6323 92.5306C57.5504 92.5654 57.4867 92.6125 57.4413 92.6719C57.396 92.7298 57.3733 92.8022 57.3733 92.8891C57.3733 93.0151 57.4194 93.1114 57.5116 93.1781C57.6052 93.2432 57.7237 93.2758 57.8671 93.2758Z" fill="white"/>
<path d="M63.0284 91.4661L62.1724 91.5182C62.1578 91.4458 62.1263 91.3806 62.0781 91.3227C62.0298 91.2633 61.9661 91.2162 61.8871 91.1815C61.8095 91.1453 61.7166 91.1272 61.6083 91.1272C61.4635 91.1272 61.3413 91.1576 61.2418 91.2184C61.1423 91.2778 61.0925 91.3575 61.0925 91.4574C61.0925 91.5371 61.1247 91.6044 61.1891 91.6594C61.2535 91.7145 61.364 91.7587 61.5206 91.792L62.1307 91.9136C62.4585 91.9803 62.7029 92.0874 62.8638 92.2352C63.0248 92.3829 63.1053 92.577 63.1053 92.8174C63.1053 93.0361 63.0401 93.228 62.9099 93.3932C62.7812 93.5583 62.6041 93.6872 62.3788 93.7799C62.1549 93.8711 61.8966 93.9167 61.604 93.9167C61.1577 93.9167 60.8021 93.8248 60.5372 93.6408C60.2738 93.4554 60.1195 93.2034 60.0741 92.8848L60.9938 92.837C61.0216 92.9717 61.0889 93.0745 61.1957 93.1455C61.3025 93.215 61.4393 93.2498 61.6062 93.2498C61.77 93.2498 61.9017 93.2186 62.0012 93.1563C62.1022 93.0926 62.1534 93.0108 62.1549 92.9108C62.1534 92.8268 62.1176 92.758 62.0473 92.7045C61.9771 92.6494 61.8688 92.6074 61.7225 92.5784L61.1386 92.4633C60.8094 92.3981 60.5643 92.2851 60.4033 92.1244C60.2439 91.9636 60.1641 91.7587 60.1641 91.5095C60.1641 91.2952 60.2226 91.1105 60.3397 90.9555C60.4582 90.8006 60.6243 90.6811 60.8379 90.5971C61.053 90.513 61.3047 90.471 61.593 90.471C62.0188 90.471 62.3539 90.5601 62.5982 90.7383C62.8441 90.9164 62.9875 91.159 63.0284 91.4661Z" fill="white"/>
<path d="M65.4873 90.5145V91.2097H63.457V90.5145H65.4873ZM63.9179 89.715H64.853V92.8261C64.853 92.9116 64.8661 92.9782 64.8925 93.026C64.9188 93.0723 64.9554 93.1049 65.0022 93.1238C65.0505 93.1426 65.1061 93.152 65.169 93.152C65.2129 93.152 65.2568 93.1484 65.3007 93.1411C65.3446 93.1324 65.3783 93.1259 65.4017 93.1216L65.5487 93.8103C65.5019 93.8248 65.4361 93.8414 65.3512 93.8603C65.2663 93.8805 65.1632 93.8928 65.0417 93.8972C64.8164 93.9059 64.6188 93.8762 64.4491 93.8081C64.2808 93.74 64.1499 93.6343 64.0562 93.4909C63.9626 93.3475 63.9165 93.1665 63.9179 92.9478V89.715Z" fill="white"/>
<path d="M69.3399 90.5145V91.2097H67.2591V90.5145H69.3399ZM67.7354 93.8516V90.2733C67.7354 90.0315 67.783 89.8309 67.8781 89.6715C67.9746 89.5122 68.1063 89.3927 68.2731 89.3131C68.44 89.2334 68.6295 89.1936 68.8416 89.1936C68.985 89.1936 69.116 89.2044 69.2345 89.2262C69.3545 89.2479 69.4438 89.2674 69.5023 89.2848L69.3355 89.98C69.2989 89.9685 69.2535 89.9576 69.1994 89.9475C69.1467 89.9373 69.0926 89.9322 69.037 89.9322C68.8994 89.9322 68.8036 89.9641 68.7494 90.0278C68.6953 90.0901 68.6682 90.1777 68.6682 90.2907V93.8516H67.7354Z" fill="white"/>
<path d="M71.3136 93.9167C70.9727 93.9167 70.6778 93.8451 70.4291 93.7017C70.1818 93.5568 69.9908 93.3555 69.8562 93.0977C69.7216 92.8384 69.6543 92.5379 69.6543 92.1961C69.6543 91.8514 69.7216 91.5501 69.8562 91.2923C69.9908 91.033 70.1818 90.8317 70.4291 90.6883C70.6778 90.5435 70.9727 90.471 71.3136 90.471C71.6546 90.471 71.9487 90.5435 72.196 90.6883C72.4447 90.8317 72.6364 91.033 72.771 91.2923C72.9057 91.5501 72.973 91.8514 72.973 92.1961C72.973 92.5379 72.9057 92.8384 72.771 93.0977C72.6364 93.3555 72.4447 93.5568 72.196 93.7017C71.9487 93.8451 71.6546 93.9167 71.3136 93.9167ZM71.318 93.1998C71.4731 93.1998 71.6026 93.1563 71.7065 93.0694C71.8104 92.9811 71.8887 92.8609 71.9414 92.7088C71.9955 92.5567 72.0226 92.3836 72.0226 92.1896C72.0226 91.9955 71.9955 91.8224 71.9414 91.6703C71.8887 91.5182 71.8104 91.398 71.7065 91.3097C71.6026 91.2213 71.4731 91.1771 71.318 91.1771C71.1614 91.1771 71.0298 91.2213 70.9229 91.3097C70.8176 91.398 70.7378 91.5182 70.6837 91.6703C70.631 91.8224 70.6047 91.9955 70.6047 92.1896C70.6047 92.3836 70.631 92.5567 70.6837 92.7088C70.7378 92.8609 70.8176 92.9811 70.9229 93.0694C71.0298 93.1563 71.1614 93.1998 71.318 93.1998Z" fill="white"/>
<path d="M75.1042 93.9167C74.7633 93.9167 74.4684 93.8451 74.2197 93.7017C73.9724 93.5568 73.7814 93.3555 73.6468 93.0977C73.5122 92.8384 73.4449 92.5379 73.4449 92.1961C73.4449 91.8514 73.5122 91.5501 73.6468 91.2923C73.7814 91.033 73.9724 90.8317 74.2197 90.6883C74.4684 90.5435 74.7633 90.471 75.1042 90.471C75.4452 90.471 75.7393 90.5435 75.9866 90.6883C76.2353 90.8317 76.427 91.033 76.5616 91.2923C76.6962 91.5501 76.7635 91.8514 76.7635 92.1961C76.7635 92.5379 76.6962 92.8384 76.5616 93.0977C76.427 93.3555 76.2353 93.5568 75.9866 93.7017C75.7393 93.8451 75.4452 93.9167 75.1042 93.9167ZM75.1086 93.1998C75.2637 93.1998 75.3932 93.1563 75.4971 93.0694C75.601 92.9811 75.6793 92.8609 75.732 92.7088C75.7861 92.5567 75.8132 92.3836 75.8132 92.1896C75.8132 91.9955 75.7861 91.8224 75.732 91.6703C75.6793 91.5182 75.601 91.398 75.4971 91.3097C75.3932 91.2213 75.2637 91.1771 75.1086 91.1771C74.952 91.1771 74.8203 91.2213 74.7135 91.3097C74.6082 91.398 74.5284 91.5182 74.4743 91.6703C74.4216 91.8224 74.3953 91.9955 74.3953 92.1896C74.3953 92.3836 74.4216 92.5567 74.4743 92.7088C74.5284 92.8609 74.6082 92.9811 74.7135 93.0694C74.8203 93.1563 74.952 93.1998 75.1086 93.1998Z" fill="white"/>
<path d="M78.6138 93.9059C78.3578 93.9059 78.1258 93.8407 77.9181 93.7104C77.7117 93.5785 77.5479 93.3852 77.4264 93.1303C77.3064 92.8739 77.2464 92.5596 77.2464 92.1874C77.2464 91.805 77.3086 91.4871 77.433 91.2336C77.5574 90.9787 77.7227 90.7882 77.929 90.6622C78.1368 90.5348 78.3644 90.471 78.6117 90.471C78.8004 90.471 78.9577 90.5029 79.0836 90.5666C79.2109 90.6289 79.3133 90.7071 79.3908 90.8013C79.4699 90.894 79.5299 90.9852 79.5708 91.075H79.5994V89.4021H80.5322V93.8516H79.6103V93.3171H79.5708C79.5269 93.4098 79.4647 93.5018 79.3843 93.593C79.3052 93.6828 79.2021 93.7574 79.0748 93.8168C78.9489 93.8762 78.7953 93.9059 78.6138 93.9059ZM78.9102 93.1694C79.0609 93.1694 79.1882 93.1288 79.2921 93.0477C79.3974 92.9652 79.4779 92.85 79.5335 92.7023C79.5906 92.5545 79.6191 92.3815 79.6191 92.183C79.6191 91.9846 79.5913 91.8122 79.5357 91.666C79.4801 91.5197 79.3996 91.4067 79.2943 91.327C79.1889 91.2474 79.0609 91.2075 78.9102 91.2075C78.7565 91.2075 78.627 91.2488 78.5217 91.3314C78.4163 91.4139 78.3366 91.5284 78.2824 91.6747C78.2283 91.8209 78.2012 91.9904 78.2012 92.183C78.2012 92.3771 78.2283 92.5487 78.2824 92.6979C78.338 92.8457 78.4178 92.9615 78.5217 93.0455C78.627 93.1281 78.7565 93.1694 78.9102 93.1694Z" fill="white"/>
<path d="M84.1099 93.9167C83.7997 93.9167 83.5319 93.8617 83.3065 93.7516C83.0812 93.6416 82.9078 93.4924 82.7863 93.3041C82.6664 93.1143 82.6064 92.9029 82.6064 92.6697C82.6064 92.4959 82.6415 92.3416 82.7117 92.2069C82.782 92.0722 82.88 91.9484 83.0058 91.8354C83.1317 91.721 83.278 91.6073 83.4448 91.4943L84.3162 90.9273C84.4289 90.8563 84.5115 90.7817 84.5642 90.7035C84.6169 90.6238 84.6432 90.5377 84.6432 90.445C84.6432 90.3566 84.6074 90.2748 84.5357 90.1995C84.464 90.1242 84.3623 90.0872 84.2306 90.0887C84.1428 90.0887 84.0667 90.1082 84.0023 90.1473C83.9379 90.185 83.8874 90.235 83.8509 90.2972C83.8158 90.3581 83.7982 90.4261 83.7982 90.5015C83.7982 90.5942 83.8245 90.6883 83.8772 90.7839C83.9299 90.8795 84.0001 90.9809 84.0879 91.0881C84.1757 91.1938 84.2716 91.3082 84.3754 91.4313L86.5067 93.8516H85.5322L83.7543 91.8919C83.6372 91.7601 83.5202 91.6225 83.4031 91.4791C83.2875 91.3343 83.1909 91.1808 83.1134 91.0185C83.0358 90.8549 82.9971 90.6774 82.9971 90.4863C82.9971 90.2704 83.0475 90.0764 83.1485 89.904C83.2509 89.7316 83.3943 89.5955 83.5787 89.4956C83.7631 89.3942 83.9782 89.3435 84.224 89.3435C84.464 89.3435 84.671 89.392 84.8452 89.489C85.0207 89.5846 85.1554 89.7121 85.249 89.8714C85.3441 90.0293 85.3917 90.2031 85.3917 90.3928C85.3917 90.6028 85.339 90.7933 85.2337 90.9642C85.1298 91.1337 84.9834 91.2858 84.7947 91.4205L83.8772 92.0744C83.7528 92.1642 83.6606 92.2562 83.6007 92.3503C83.5421 92.443 83.5129 92.5321 83.5129 92.6175C83.5129 92.7233 83.5392 92.8181 83.5919 92.9022C83.6445 92.9862 83.7192 93.0528 83.8158 93.102C83.9123 93.1498 84.0257 93.1737 84.156 93.1737C84.314 93.1737 84.4698 93.1382 84.6235 93.0673C84.7786 92.9949 84.9191 92.8927 85.0449 92.7609C85.1722 92.6277 85.2739 92.4698 85.35 92.2873C85.4261 92.1048 85.4641 91.9028 85.4641 91.6812H86.2389C86.2389 91.9535 86.2089 92.199 86.1489 92.4177C86.0889 92.6349 86.0055 92.8247 85.8987 92.9869C85.7919 93.1477 85.6697 93.2795 85.5322 93.3823C85.4883 93.4098 85.4458 93.4359 85.4049 93.4605C85.3639 93.4851 85.3214 93.5112 85.2775 93.5387C85.1107 93.672 84.9242 93.7683 84.7179 93.8277C84.513 93.8871 84.3103 93.9167 84.1099 93.9167Z" fill="white"/>
<path d="M91.325 90.8404C91.2943 90.7347 91.2511 90.6412 91.1955 90.5601C91.1399 90.4776 91.0719 90.408 90.9914 90.3516C90.9124 90.2936 90.8217 90.2494 90.7192 90.219C90.6183 90.1886 90.5063 90.1734 90.3834 90.1734C90.1537 90.1734 89.9518 90.2299 89.7776 90.3429C89.605 90.4558 89.4703 90.6202 89.3738 90.836C89.2772 91.0504 89.2289 91.3126 89.2289 91.6225C89.2289 91.9325 89.2765 92.1961 89.3716 92.4133C89.4667 92.6306 89.6013 92.7964 89.7754 92.9108C89.9496 93.0238 90.1552 93.0803 90.3922 93.0803C90.6073 93.0803 90.7909 93.0426 90.9431 92.9673C91.0968 92.8906 91.2138 92.7827 91.2943 92.6436C91.3763 92.5046 91.4172 92.3402 91.4172 92.1504L91.6104 92.1787H90.4515V91.4704H92.3325V92.031C92.3325 92.422 92.2491 92.758 92.0823 93.039C91.9155 93.3186 91.6857 93.5344 91.3931 93.6865C91.1004 93.8371 90.7653 93.9124 90.3878 93.9124C89.9664 93.9124 89.5962 93.8204 89.2772 93.6365C88.9582 93.4511 88.7095 93.1882 88.5309 92.8478C88.3539 92.506 88.2654 92.1005 88.2654 91.6312C88.2654 91.2706 88.318 90.949 88.4234 90.6666C88.5302 90.3827 88.6795 90.1423 88.8711 89.9453C89.0628 89.7483 89.286 89.5984 89.5406 89.4956C89.7952 89.3927 90.071 89.3413 90.3681 89.3413C90.6227 89.3413 90.8597 89.3782 91.0792 89.4521C91.2987 89.5245 91.4933 89.6274 91.663 89.7606C91.8343 89.8939 91.974 90.0525 92.0823 90.2364C92.1906 90.4189 92.2601 90.6202 92.2908 90.8404H91.325Z" fill="white"/>
<path d="M93.0288 93.8516V90.5145H93.9353V91.0967H93.9704C94.0319 90.8896 94.1351 90.7332 94.2799 90.6275C94.4248 90.5203 94.5916 90.4667 94.7803 90.4667C94.8272 90.4667 94.8777 90.4696 94.9318 90.4754C94.9859 90.4812 95.0335 90.4892 95.0745 90.4993V91.3205C95.0306 91.3075 94.9698 91.2959 94.8923 91.2858C94.8147 91.2756 94.7438 91.2706 94.6794 91.2706C94.5418 91.2706 94.4189 91.3002 94.3106 91.3596C94.2038 91.4176 94.119 91.4987 94.056 91.603C93.9946 91.7072 93.9638 91.8275 93.9638 91.9636V93.8516H93.0288Z" fill="white"/>
<path d="M95.5579 93.8516V90.5145H96.4929V93.8516H95.5579ZM96.0276 90.0843C95.8886 90.0843 95.7693 90.0387 95.6698 89.9475C95.5718 89.8548 95.5228 89.744 95.5228 89.6151C95.5228 89.4876 95.5718 89.3782 95.6698 89.287C95.7693 89.1943 95.8886 89.1479 96.0276 89.1479C96.1666 89.1479 96.2851 89.1943 96.3832 89.287C96.4827 89.3782 96.5324 89.4876 96.5324 89.6151C96.5324 89.744 96.4827 89.8548 96.3832 89.9475C96.2851 90.0387 96.1666 90.0843 96.0276 90.0843Z" fill="white"/>
<path d="M98.1769 89.4021V93.8516H97.2419V89.4021H98.1769Z" fill="white"/>
<path d="M99.861 89.4021V93.8516H98.926V89.4021H99.861Z" fill="white"/>
</svg>
